<svg height="512pt" viewBox="0 0 512 512" width="512pt" xmlns="http://www.w3.org/2000/svg"><path d="m512 256c0 141.386719-114.613281 256-256 256s-256-114.613281-256-256 114.613281-256 256-256 256 114.613281 256 256zm0 0" fill="#4a7aff"/><path d="m512 256c0 141.386719-114.613281 256-256 256s-256-114.613281-256-256 114.613281-256 256-256 256 114.613281 256 256zm0 0" fill="#4a7aff"/><path d="m512 256c0-15.625-1.40625-30.917969-4.085938-45.769531l-89.101562-89.105469-135.421875 139.695312-168.296875 1.179688 57.90625 57.910156-26.574219.316406 40.304688 40.304688-17.195313 17.738281-85.859375-13.980469 146.414063 146.414063c8.519531.855469 17.164062 1.296875 25.910156 1.296875 141.386719 0 256-114.613281 256-256zm0 0" fill="#0053bf"/><path d="m192.066406 396.050781c130.0625 0 201.1875-107.753906 201.1875-201.1875 0-3.0625-.0625-6.105469-.203125-9.136719 13.804688-9.984374 25.804688-22.4375 35.273438-36.613281-12.671875 5.628907-26.304688 9.421875-40.609375 11.128907 14.601562-8.75 25.808594-22.601563 31.097656-39.113282-13.667969 8.101563-28.792969 13.988282-44.898438 17.164063-12.90625-13.742188-31.28125-22.339844-51.613281-22.339844-39.054687 0-70.722656 31.667969-70.722656 70.703125 0 5.550781.621094 10.945312 1.832031 16.125-58.761718-2.957031-110.875-31.097656-145.746094-73.878906-6.078124 10.449218-9.574218 22.589844-9.574218 35.539062 0 24.53125 12.484375 46.191406 31.464844 58.859375-11.597657-.355469-22.496094-3.546875-32.023438-8.847656-.015625.296875-.015625.59375-.015625.902344 0 34.25 24.375 62.839843 56.726563 69.320312-5.9375 1.617188-12.1875 2.488281-18.640626 2.488281-4.554687 0-8.984374-.453124-13.292968-1.273437 9.003906 28.089844 35.105468 48.535156 66.058594 49.113281-24.207032 18.964844-54.691407 30.265625-87.820313 30.265625-5.703125 0-11.332031-.324219-16.867187-.980469 31.292968 20.054688 68.449218 31.761719 108.386718 31.761719" fill="#fff"/><path d="m428.324219 149.113281c-12.671875 5.628907-26.304688 9.417969-40.609375 11.128907 14.601562-8.75 25.808594-22.605469 31.097656-39.113282-13.667969 8.101563-28.792969 13.988282-44.898438 17.160156-12.90625-13.738281-31.28125-22.335937-51.613281-22.335937-30.761719 0-56.925781 19.648437-66.65625 47.066406v223.523438c89.46875-28.289063 137.609375-114.820313 137.609375-191.679688 0-3.0625-.0625-6.105469-.203125-9.136719 13.804688-9.984374 25.804688-22.4375 35.273438-36.613281zm0 0" fill="#dce1eb"/></svg>